<svg xmlns="http://www.w3.org/2000/svg" viewBox="0 0 367.5 418.08"><defs><style>.cls-1{fill:#fff;}.cls-2{fill:#757575;}.cls-3{fill:#fefefe;}</style></defs><title>logo</title><g id="Layer_4" data-name="Layer 4"><circle cx="183.75" cy="220" r="183.75"/><circle cx="183.75" cy="220" r="183.75"/></g><g id="Layer_6" data-name="Layer 6"><circle class="cls-1" cx="183.75" cy="220" r="172.5"/></g><g id="Layer_5" data-name="Layer 5"><circle cx="183.75" cy="220" r="165.5"/></g><g id="Player"><path class="cls-2" d="M252,86h8c1.22.54,2.45,1.05,3.65,1.63A24.11,24.11,0,0,1,275,120.48a37.71,37.71,0,0,0-3.19,10.94c-2.28,13.3-.41,27-4.17,40.15-.43,1.51.37,2.94,1,4.3a51.69,51.69,0,0,1,4.57,17.32c.42,4.56,2.52,8.2,5.28,11.63,1.83,2.27,3.52,2.88,5.51.09,2.12-3,4.54-5.75,6.65-8.73s4.79-5.7,8.68-6.21c7.26-1,12.94,2,17.42,7.58s4.7,11.06,1.09,17.12a24.44,24.44,0,0,1-6,6.54c-4,3.24-3.71,4.63.26,7.88,6.82,5.58,13.24,11.15,15.74,20.56,1.89,7.14,1,13.7.33,20.62-1.84,18.4-3.52,36.8-11.45,53.9-1,2.07-1.38,4.28-.38,6.29a71.63,71.63,0,0,1,7.52,26.2,5.71,5.71,0,0,0,1.06,2.23c5.38,8.79,10.44,17.41,8.44,28.67-2.46,13.83,5.42,27.55,1.17,41.56,2.58,7.82,3.47,16.33,9.28,22.85.82.92,1.51,2,1.15,3.17-2.11,6.52,1.77,12,3,17.86,0,9.5-.09,19,.07,28.5,0,2.15-.4,2.69-2.57,2.56-3.82-.23-7.66-.06-11.5-.06-3-2.12-6.31-4.2-7.67-7.69-3.42-8.76-6.2-17.74-10.16-26.33-1.66-3.59-2.9-7.36-5.16-10.69-10.45-15.4-21.52-30.46-25.51-49.25a47.39,47.39,0,0,0-4.09-10.71c-2.5-5.11-5.28-10.6-10.77-12.68-7.33-2.79-9.66-8.86-10.55-15.12-1.55-10.93-3.14-21.52-11-30a5.42,5.42,0,0,1-1.15-3.72,54.85,54.85,0,0,0-1.9-18.26,16.33,16.33,0,0,1,.28-9.41c2.34-6.69,1.77-13.5,1.17-20.29a129.24,129.24,0,0,1-.51-21.46c.62-7.9.42-16,4.06-23.44,4.71-9.59,6.65-19.41,2.52-29.74a4.23,4.23,0,0,1-.26-3.39c1.42-3.12.58-6.2.08-9.32a167.69,167.69,0,0,1-.43-48.62,7.84,7.84,0,0,1,1-3.31c3.63-5.34,3.6-11.69,5-17.64.66-2.82-.34-4.49-3.42-4.75-10.21-.88-16.21-6.89-19.48-16.16V102C239.16,94.49,243.69,88.36,252,86Zm71.75,368.42c-1.37-3.53,0-6.9,0-10.28.15-7,.36-14.2-3.61-20.61-2.36-3.81-5.22-7.6-5.2-12.27,0-6.45-4.34-10.18-8-14.41-.55-.63-1.27-1.22-2.15-.89s-.8,1.35-.79,2.16c.08,5.7.37,11.31,4,16.19a26.7,26.7,0,0,1,5.58,15.61C313.84,439.11,319.3,446.6,323.75,454.42Z" transform="translate(-103.25 -86)"/></g><g id="Minnesota"><path class="cls-3" d="M164.45,261q0-.42,0-1.39t0-2q0-1.07,0-2t0-1.34a6.58,6.58,0,0,1,.18-.76,9.88,9.88,0,0,1,.33-1,2.77,2.77,0,0,1,.53-.86,1.07,1.07,0,0,1,.83-.37,4.06,4.06,0,0,1,2.18.63,9.48,9.48,0,0,1,2,1.67,20.47,20.47,0,0,1,1.81,2.3l1.71,2.51q.84,1.25,1.65,2.36a9.69,9.69,0,0,0,1.62,1.78,2.77,2.77,0,0,0,1.37-1.42,11.91,11.91,0,0,0,.81-2.39q.32-1.35.58-2.81a15.76,15.76,0,0,1,.72-2.69,5.79,5.79,0,0,1,1.21-2,2.75,2.75,0,0,1,2.09-.79,4,4,0,0,1,2.87,1.23,12.48,12.48,0,0,1,2.3,3.13,23.93,23.93,0,0,1,1.74,4.22q.72,2.32,1.21,4.46t.74,3.87a20.08,20.08,0,0,1,.25,2.46c0,.21,0,.44,0,.69a2,2,0,0,1-.18.67,1,1,0,0,1-.46.46,1.28,1.28,0,0,1-.91,0,1.12,1.12,0,0,1-.4-.19,3.44,3.44,0,0,1-.47-.4,4.69,4.69,0,0,1-.42-.47.69.69,0,0,1-.18-.4l-.7-3.83q-.39-2.11-1-4.27a30.76,30.76,0,0,0-1.46-4.2,13.16,13.16,0,0,0-2.18-3.52,3.9,3.9,0,0,0-1.6,1.71,14,14,0,0,0-1,2.5q-.39,1.35-.7,2.76a12.74,12.74,0,0,1-.84,2.55,5.8,5.8,0,0,1-1.34,1.88,3.11,3.11,0,0,1-2.18.74,3.22,3.22,0,0,1-1.85-.62,8.85,8.85,0,0,1-1.74-1.62,22.6,22.6,0,0,1-1.63-2.21l-1.55-2.39q-.76-1.18-1.48-2.2a8,8,0,0,0-1.46-1.62q-.28,1.09-.44,1.92t-.25,1.6q-.09.77-.11,1.58t0,1.79a17.56,17.56,0,0,0,.25,2.94q.25,1.46.53,2.9t.54,2.9a16.47,16.47,0,0,1,.26,2.94v.28a3.29,3.29,0,0,1-.28.33l-.44.47a4.17,4.17,0,0,1-.47.44l-.35.26a.21.21,0,0,1-.14,0,.68.68,0,0,1-.21,0l-.18,0-.18,0q-.25-2-.53-3.87t-.51-3.62q-.23-1.79-.39-3.62T164.45,261Z" transform="translate(-103.25 -86)"/><path class="cls-3" d="M209.5,271.11a19.82,19.82,0,0,0-.46-4q-.46-2.18-1-4.46t-1-4.55a21.93,21.93,0,0,1-.53-4.27h-7.84V253a5.64,5.64,0,0,1,.11-1.07,4,4,0,0,1,.32-1,.94.94,0,0,1,.63-.54h19.34a3.15,3.15,0,0,1-.46,1.72,2.72,2.72,0,0,1-1.11.91,4.8,4.8,0,0,1-1.53.4l-1.69.19q-.84.11-1.65.26a3.2,3.2,0,0,0-1.39.62,2.8,2.8,0,0,0-.88,1.25,4.73,4.73,0,0,0-.16,2.13q0,.74.11,2t.35,2.62q.25,1.41.63,2.83a14.41,14.41,0,0,0,1,2.6,6.63,6.63,0,0,0,1.34,1.9,2.49,2.49,0,0,0,1.78.72,12.69,12.69,0,0,0,1.81,0l2.23-.09a21.19,21.19,0,0,1,2.13,0,2.74,2.74,0,0,1,1.46.42.83.83,0,0,1,.21,1,5.57,5.57,0,0,1-1.55,1.85,20.4,20.4,0,0,1-4.55,1.14,38.14,38.14,0,0,1-4.62.32q-2.32,0-4.64-.07t-4.61-.09a8.09,8.09,0,0,1-1.55-2.43q-.25-.84.19-1.18a2.42,2.42,0,0,1,1.41-.35q1,0,2.09.07t2.25.14A5.2,5.2,0,0,0,209.5,271.11Z" transform="translate(-103.25 -86)"/><path class="cls-3" d="M231.21,274.49q-.14-.56-.37-1.62t-.49-2.32q-.26-1.27-.51-2.65t-.46-2.71q-.21-1.32-.33-2.43a17.05,17.05,0,0,1-.12-1.81q0-.32.07-1.09t.21-1.62l.26-1.58a6.31,6.31,0,0,1,.23-1,1.34,1.34,0,0,1,.37,0,4.83,4.83,0,0,0,.56,0l.56-.05.37,0a7.84,7.84,0,0,1,3.2.67,15,15,0,0,1,2.88,1.69,26.64,26.64,0,0,1,2.67,2.29q1.3,1.27,2.62,2.46a28.22,28.22,0,0,0,2.69,2.16,10.63,10.63,0,0,0,2.92,1.46q0-.18,0-.54t0-.79q0-.42,0-.79c0-.25,0-.43,0-.54a32.69,32.69,0,0,0-.28-4.32q-.28-2.11-.63-4.22t-.63-4.24a33.36,33.36,0,0,1-.28-4.38l.62,0a4.44,4.44,0,0,1,.76.11,2.34,2.34,0,0,1,.7.28.94.94,0,0,1,.42.58,37.84,37.84,0,0,0,.63,5.08q.49,2.55,1,5.1t.93,5.1a32.17,32.17,0,0,1,.4,5q0,.46,0,1a4.59,4.59,0,0,1-.14,1,1.88,1.88,0,0,1-.4.79,1.07,1.07,0,0,1-.84.32,7.05,7.05,0,0,1-3.37-.83,17.29,17.29,0,0,1-3-2.06,34.05,34.05,0,0,1-2.85-2.71,34.13,34.13,0,0,0-2.85-2.71,17.8,17.8,0,0,0-3-2.07,7,7,0,0,0-3.36-.84,24.6,24.6,0,0,0,.28,3.78q.28,1.81.62,3.6t.62,3.57a23,23,0,0,1,.28,3.6.93.93,0,0,1-.47.91,2.22,2.22,0,0,1-1,.25,4,4,0,0,1-.86-.09Q231.42,275.12,231.21,274.49Z" transform="translate(-103.25 -86)"/><path class="cls-3" d="M258.93,274.49q-.14-.56-.37-1.62t-.49-2.32q-.26-1.27-.51-2.65t-.46-2.71q-.21-1.32-.33-2.43a16.92,16.92,0,0,1-.12-1.81q0-.32.07-1.09t.21-1.62l.26-1.58a6.31,6.31,0,0,1,.23-1,1.34,1.34,0,0,1,.37,0,4.83,4.83,0,0,0,.56,0l.56-.05.37,0a7.84,7.84,0,0,1,3.2.67,15,15,0,0,1,2.88,1.69,26.64,26.64,0,0,1,2.67,2.29q1.3,1.27,2.62,2.46a28.16,28.16,0,0,0,2.69,2.16,10.61,10.61,0,0,0,2.92,1.46c0-.12,0-.3,0-.54s0-.51,0-.79,0-.54,0-.79,0-.43,0-.54a32.86,32.86,0,0,0-.28-4.32q-.28-2.11-.63-4.22t-.63-4.24a33.2,33.2,0,0,1-.28-4.38l.62,0a4.45,4.45,0,0,1,.76.11,2.35,2.35,0,0,1,.7.28.94.94,0,0,1,.42.58,37.52,37.52,0,0,0,.63,5.08q.49,2.55,1,5.1t.93,5.1a32.29,32.29,0,0,1,.4,5c0,.3,0,.63,0,1a4.71,4.71,0,0,1-.14,1,1.9,1.9,0,0,1-.4.79,1.07,1.07,0,0,1-.84.32,7,7,0,0,1-3.37-.83,17.24,17.24,0,0,1-3-2.06,34.05,34.05,0,0,1-2.85-2.71,34.28,34.28,0,0,0-2.85-2.71,17.82,17.82,0,0,0-3-2.07,7,7,0,0,0-3.36-.84,24.54,24.54,0,0,0,.28,3.78q.28,1.81.62,3.6t.62,3.57a23,23,0,0,1,.28,3.6.93.93,0,0,1-.47.91,2.22,2.22,0,0,1-1,.25,4,4,0,0,1-.86-.09Q259.14,275.12,258.93,274.49Z" transform="translate(-103.25 -86)"/><path class="cls-3" d="M286.64,248.12a2.19,2.19,0,0,1-.51-.09q-.33-.09-.69-.21l-.67-.25a2.52,2.52,0,0,1-.42-.19.31.31,0,0,1,0-.14.39.39,0,0,1,0-.18,1.1,1.1,0,0,1,.39-.84,3.39,3.39,0,0,1,.9-.58,6.07,6.07,0,0,1,1-.35,7,7,0,0,1,.77-.16h.77l2.14.21,2.76.3,3,.32q1.49.16,2.71.32l2,.25,1,.09.72.12a4.67,4.67,0,0,1,.9.28,4.84,4.84,0,0,1,.84.46,1.57,1.57,0,0,1,.56.65,6.9,6.9,0,0,1-.49.86,1.69,1.69,0,0,1-.46.46.93.93,0,0,1-.51.16h-.65q-1.48,0-3-.11l-3-.21-3-.21q-1.49-.11-3-.11a16.79,16.79,0,0,1-.16,1.9q-.16,1.27-.25,2.67a15.89,15.89,0,0,0,.07,2.79,5.22,5.22,0,0,0,.79,2.34,5.19,5.19,0,0,1,2.57-.77q1.34,0,2.71,0h1.51a7.44,7.44,0,0,1,1.78.21,3.61,3.61,0,0,1,1.46.7,1.8,1.8,0,0,1,.6,1.48,1.66,1.66,0,0,1-.28,1.05q-.28.35-1.3.35a1.93,1.93,0,0,1-.44-.11l-.7-.25-.69-.25a1.73,1.73,0,0,0-.42-.11l-.26,0-.54,0-.62,0-.47,0a11.31,11.31,0,0,0-1.56.11,3.71,3.71,0,0,0-1.32.42,2.32,2.32,0,0,0-.9.91,3.15,3.15,0,0,0-.33,1.55q0,.32.07,1.09t.19,1.71q.12.93.33,1.92a9.92,9.92,0,0,0,.56,1.81,5.79,5.79,0,0,0,.79,1.37,1.33,1.33,0,0,0,1.07.54l.35,0,.35,0q1.2-.81,2.41-1.76t2.51-1.78a17.5,17.5,0,0,1,2.71-1.41,7.58,7.58,0,0,1,2.92-.58v1.72q0,.14-.69.77t-1.79,1.48q-1.11.84-2.48,1.79t-2.74,1.74a23.84,23.84,0,0,1-2.62,1.32,5.61,5.61,0,0,1-2.09.53,2.76,2.76,0,0,1-2.13-1.07,10.43,10.43,0,0,1-1.67-2.85,23.27,23.27,0,0,1-1.23-4.1q-.49-2.32-.86-4.78t-.6-4.9q-.23-2.44-.37-4.52t-.19-3.6Q286.68,248.72,286.64,248.12Z" transform="translate(-103.25 -86)"/><path class="cls-3" d="M317.31,274.49a2.28,2.28,0,0,1,.9-1.39,10.13,10.13,0,0,1,1.65-1q.93-.46,2-.86a18.69,18.69,0,0,0,1.88-.86,5.21,5.21,0,0,0,1.42-1.07,2.13,2.13,0,0,0,.56-1.49,2.92,2.92,0,0,0-.58-1.86,4.94,4.94,0,0,0-1.55-1.27,10.74,10.74,0,0,0-2.2-.88l-2.51-.72q-1.28-.37-2.51-.81a9.41,9.41,0,0,1-2.2-1.11,5.34,5.34,0,0,1-1.55-1.62,4.44,4.44,0,0,1-.58-2.36,5.22,5.22,0,0,1,.47-2.2,8.52,8.52,0,0,1,1.27-2,11.07,11.07,0,0,1,1.83-1.71,12.2,12.2,0,0,1,2.18-1.3,13.56,13.56,0,0,1,2.3-.83,8.66,8.66,0,0,1,2.14-.3h.39a8.55,8.55,0,0,1,.84.35l1,.47q.49.23.84.42c.23.13.35.21.35.23v.81q-.67.07-1.72.26t-2.21.51a22.25,22.25,0,0,0-2.36.79,11.51,11.51,0,0,0-2.14,1.11,6,6,0,0,0-1.55,1.46,3.13,3.13,0,0,0-.6,1.88,2.9,2.9,0,0,0,1.05,2.37,8.76,8.76,0,0,0,2.64,1.42,32.27,32.27,0,0,0,3.46,1,25.82,25.82,0,0,1,3.46,1.05,8,8,0,0,1,2.64,1.62,3.53,3.53,0,0,1,1.05,2.69,4,4,0,0,1-.54,1.92,9.8,9.8,0,0,1-1.44,2,17,17,0,0,1-2,1.85,17.43,17.43,0,0,1-2.3,1.53,15.8,15.8,0,0,1-2.3,1.05,6,6,0,0,1-2,.4,2.76,2.76,0,0,1-.6-.07,1.53,1.53,0,0,1-.54-.23,1,1,0,0,1-.35-.47A1.17,1.17,0,0,1,317.31,274.49Z" transform="translate(-103.25 -86)"/><path class="cls-3" d="M333.71,266.23a14.57,14.57,0,0,1,.47-3.64,17.08,17.08,0,0,1,1.34-3.53,16.46,16.46,0,0,1,2.09-3.15,15,15,0,0,1,2.72-2.53,12.78,12.78,0,0,1,3.25-1.69,11.11,11.11,0,0,1,3.69-.62,6.84,6.84,0,0,1,5.73,2.78,8.67,8.67,0,0,1,1.41,2.9,12.32,12.32,0,0,1,.46,3.32,19.77,19.77,0,0,1-.88,5.82,16.33,16.33,0,0,1-2.6,5.13,13.27,13.27,0,0,1-4.27,3.66,12,12,0,0,1-5.85,1.39,6.23,6.23,0,0,1-3.39-.9,7.66,7.66,0,0,1-2.36-2.32,10.37,10.37,0,0,1-1.37-3.16A14.05,14.05,0,0,1,333.71,266.23Zm3,.77a7,7,0,0,0,.32,2,7.63,7.63,0,0,0,.88,1.93,5.15,5.15,0,0,0,1.42,1.48,3.34,3.34,0,0,0,2,.6,8.69,8.69,0,0,0,4.29-1.07,11.56,11.56,0,0,0,3.34-2.78,13,13,0,0,0,2.18-3.81,12.11,12.11,0,0,0,.77-4.18q0-1.19-.07-2.46a7.83,7.83,0,0,0-.46-2.3,3.4,3.4,0,0,0-3.59-2.34l-1.32,0a10.92,10.92,0,0,0-1.63.19,5.32,5.32,0,0,0-1.42.47,1,1,0,0,0-.62.88.87.87,0,0,0,.12.3l.26.47c.09.16.18.32.25.47a1,1,0,0,1,.11.3s-.09.17-.28.37a1.52,1.52,0,0,1-.46.37,11.7,11.7,0,0,0-2.94,1.14,5.31,5.31,0,0,0-1.86,1.78,7.38,7.38,0,0,0-1,2.6A19.56,19.56,0,0,0,336.7,267Z" transform="translate(-103.25 -86)"/><path class="cls-3" d="M374.26,254.91a1,1,0,0,0-.54-.67,2.42,2.42,0,0,0-.88-.19,4.92,4.92,0,0,0-.93.05,4.91,4.91,0,0,1-.7.07l-2.07-.14-3.18-.23-3.18-.25-2.07-.16s0-.16,0-.35a3.74,3.74,0,0,1,0-.39,4,4,0,0,1,.09-.88q.09-.39.69-.6,3.3.07,6.52,0t6.43-.3l6.43-.37q3.22-.18,6.49-.18a2.62,2.62,0,0,1-.63,2,3.21,3.21,0,0,1-1.56.83,8.16,8.16,0,0,1-2.06.18q-1.12,0-2.16,0a5.68,5.68,0,0,0-1.83.4,1.75,1.75,0,0,0-1,1.21q0,.21-.07.81t-.05,1.27q0,.67,0,1.25c0,.39,0,.66,0,.83a15.58,15.58,0,0,0,.51,4q.51,2,1.13,3.87t1.13,3.83a15,15,0,0,1,.51,3.88q0,1.48-1.69,1.48-1,0-1.81-1.41a15.5,15.5,0,0,1-1.37-3.59,41.42,41.42,0,0,1-.95-4.75q-.37-2.57-.6-4.92t-.32-4.15Q374.26,255.47,374.26,254.91Z" transform="translate(-103.25 -86)"/><path class="cls-3" d="M400.43,245.13c.14-.42.34-.67.62-.74a3.7,3.7,0,0,1,.93-.11,2.72,2.72,0,0,1,1.81,1.07,16.42,16.42,0,0,1,2.06,2.87q1.05,1.79,2.13,4.11t2.07,4.8q1,2.48,1.88,4.94t1.53,4.52q.65,2.06,1,3.57a11.23,11.23,0,0,1,.35,2.07,2.3,2.3,0,0,1-.26,1.07,1,1,0,0,1-.93.51,1.05,1.05,0,0,1-.72-.26,2.34,2.34,0,0,1-.51-.65c-.14-.26-.27-.52-.39-.77l-.32-.67q-.14-.39-.58-1.48l-.91-2.29-.9-2.25q-.42-1.05-.6-1.51-2.46-.42-4.94-.79t-5.22-.72h-.39q-1.27,5.45-2.23,8.61a34.71,34.71,0,0,1-1.62,4.5q-.65,1.34-1,1.11t-.49-1.62a24.75,24.75,0,0,1,0-3.71q.16-2.32.6-5.12t1.07-5.85a60.43,60.43,0,0,1,1.53-5.91,47.06,47.06,0,0,1,2-5.29A18,18,0,0,1,400.43,245.13Zm-.84,12.38a2.21,2.21,0,0,0,.84,1.92,4.51,4.51,0,0,0,2,.79,14.54,14.54,0,0,0,2.51.14l2.27,0a11.38,11.38,0,0,0-.46-3,25.4,25.4,0,0,0-1.16-3.25q-.7-1.62-1.49-3.15t-1.46-2.76a4.68,4.68,0,0,0-.83,1.42q-.44,1-.88,2.32t-.79,2.51q-.35,1.23-.53,2c0,.07,0,.25,0,.54S399.59,257.41,399.59,257.51Z" transform="translate(-103.25 -86)"/></g><g id="Rangers_" data-name="Rangers"><path class="cls-3" d="M173.38,294.46q0-.53,0-1.75t0-2.57q0-1.35,0-2.57t0-1.68a3.65,3.65,0,0,1,1.52-2,6.73,6.73,0,0,1,2.24-.86,9.72,9.72,0,0,1,2.37-.17q1.16.07,1.91.07,1,0,2.26.13a15.51,15.51,0,0,1,2.59.49,12.35,12.35,0,0,1,2.57,1.05,8.56,8.56,0,0,1,2.26,1.78,8.28,8.28,0,0,1,1.58,2.64,10.22,10.22,0,0,1,.59,3.66,12.24,12.24,0,0,1-.79,4.52,19.84,19.84,0,0,1-2,3.76,27.19,27.19,0,0,1-2.55,3.26q-1.38,1.52-2.55,3a18.21,18.21,0,0,0-2,3,7,7,0,0,0-.79,3.3,1.41,1.41,0,0,0,.07.36,1.51,1.51,0,0,1,.07.3,66.61,66.61,0,0,1,10.09,5.6q4.9,3.3,9.65,7.12a1.66,1.66,0,0,1,.29.49,6.54,6.54,0,0,1,.29.86c.09.33.18.63.26.89a2.17,2.17,0,0,1,.13.66,1.49,1.49,0,0,1-.22.89,1.59,1.59,0,0,1-.53.46,1.29,1.29,0,0,1-.62.17h-.53A8.52,8.52,0,0,1,197,329.7q-2.35-1.55-4.72-3.46a57.92,57.92,0,0,0-4.81-3.49,9.2,9.2,0,0,0-5.08-1.58H181l1.25,4.35q.55,1.91.92,3.69t.57,3.59a36.29,36.29,0,0,1,.2,3.92v1.09q0,.63,0,1.29a3.71,3.71,0,0,1-.26,1.19,1.27,1.27,0,0,1-.7.72,13.57,13.57,0,0,1-3.23-4.91,49.13,49.13,0,0,1-2.48-7.61q-1.05-4.28-1.78-9.1t-1.19-9.46q-.46-4.65-.66-8.7T173.38,294.46Zm3.78,4.15q0,.86-.07,2.21t0,2.77a17.48,17.48,0,0,0,.29,2.7,6.4,6.4,0,0,0,.81,2.21.29.29,0,0,0,.18.07s.1.07.22.07a3.72,3.72,0,0,0,1.91-.73,15.85,15.85,0,0,0,2.35-1.91,26.13,26.13,0,0,0,2.44-2.74,29.15,29.15,0,0,0,2.18-3.2,19.26,19.26,0,0,0,1.56-3.33,9.3,9.3,0,0,0,.59-3.07,3.91,3.91,0,0,0-.66-2.27,5.59,5.59,0,0,0-1.58-1.55,6.75,6.75,0,0,0-1.91-.86,6.56,6.56,0,0,0-1.6-.26l-1.76,0a7.68,7.68,0,0,0-2,.2,4.73,4.73,0,0,0-1.78.82,3.1,3.1,0,0,0-1.1,1.78V295q0,1.15,0,2.14T177.16,298.61Z" transform="translate(-103.25 -86)"/><path class="cls-3" d="M219.37,283.12q.26-1.19.77-1.38a3.18,3.18,0,0,1,1.16-.2q1,0,2.26,2a33.57,33.57,0,0,1,2.57,5.37q1.32,3.36,2.66,7.71t2.59,9q1.25,4.65,2.35,9.26t1.91,8.47q.81,3.86,1.25,6.69a30.73,30.73,0,0,1,.44,3.89,6.12,6.12,0,0,1-.33,2,1.2,1.2,0,0,1-1.16,1,1.1,1.1,0,0,1-.9-.49,4.64,4.64,0,0,1-.64-1.22q-.26-.73-.48-1.45t-.4-1.25q-.18-.72-.73-2.77t-1.14-4.29l-1.12-4.22q-.53-2-.75-2.83-3.08-.79-6.17-1.48T217,315.56h-.48q-1.58,10.22-2.79,16.15t-2,8.44q-.81,2.5-1.27,2.08t-.62-3q-.15-2.6,0-7t.75-9.59q.55-5.24,1.34-11t1.91-11.07q1.12-5.34,2.5-9.92A39.93,39.93,0,0,1,219.37,283.12Zm-1.05,23.2a5.2,5.2,0,0,0,1.05,3.59,4.77,4.77,0,0,0,2.55,1.48,12.22,12.22,0,0,0,3.14.26q1.65-.07,2.83-.07a31.3,31.3,0,0,0-.57-5.7q-.57-3.06-1.45-6.1T224,293.9q-1-2.87-1.82-5.17a10.43,10.43,0,0,0-1,2.67q-.55,1.95-1.1,4.35t-1,4.71q-.44,2.31-.66,3.76,0,.2,0,1T218.31,306.33Z" transform="translate(-103.25 -86)"/><path class="cls-3" d="M246.5,338.17q-.18-1.05-.46-3t-.62-4.35q-.33-2.37-.64-5t-.57-5.08q-.26-2.47-.42-4.55t-.15-3.39q0-.59.09-2t.26-3l.33-3a17,17,0,0,1,.29-1.91,1.14,1.14,0,0,1,.46-.07,4,4,0,0,0,.7-.07l.7-.1.46,0a7.12,7.12,0,0,1,4,1.25,18.92,18.92,0,0,1,3.6,3.16,41.87,41.87,0,0,1,3.34,4.28q1.63,2.37,3.27,4.61a42.61,42.61,0,0,0,3.36,4.05,12.39,12.39,0,0,0,3.65,2.74q0-.33,0-1t0-1.48q0-.79,0-1.48c0-.46,0-.8,0-1q0-4.15-.35-8.11t-.79-7.91q-.44-4-.79-7.94T266,285.5l.77,0a3.82,3.82,0,0,1,.94.2,2.49,2.49,0,0,1,.88.53,1.89,1.89,0,0,1,.53,1.09q.18,4.75.79,9.53t1.27,9.56q.66,4.78,1.16,9.56a90,90,0,0,1,.51,9.46q0,.86,0,1.85a12.76,12.76,0,0,1-.18,1.88,4.36,4.36,0,0,1-.51,1.48,1.15,1.15,0,0,1-1.05.59,6.6,6.6,0,0,1-4.22-1.55,23.78,23.78,0,0,1-3.76-3.86,57,57,0,0,1-3.56-5.08,57.4,57.4,0,0,0-3.56-5.08,24.57,24.57,0,0,0-3.78-3.89,6.55,6.55,0,0,0-4.2-1.58,68.67,68.67,0,0,0,.35,7.09q.35,3.4.77,6.76t.77,6.69a64.3,64.3,0,0,1,.35,6.76,1.85,1.85,0,0,1-1.89,2.18,3.44,3.44,0,0,1-1.08-.17Q246.76,339.35,246.5,338.17Z" transform="translate(-103.25 -86)"/><path class="cls-3" d="M278.2,317.6a36.75,36.75,0,0,1,.64-6.72,45.88,45.88,0,0,1,1.76-6.66,42,42,0,0,1,2.68-6.13,26.12,26.12,0,0,1,3.47-5,16,16,0,0,1,4.09-3.36,9.1,9.1,0,0,1,4.5-1.22,13.62,13.62,0,0,1,2.61.33,11.92,11.92,0,0,1,3.12,1.12,8.43,8.43,0,0,1,2.59,2.08,4.62,4.62,0,0,1,1.08,3.06,1.07,1.07,0,0,1,0,.23,1.07,1.07,0,0,0,0,.23.83.83,0,0,0,0,.26,8.09,8.09,0,0,1-.44.76,5,5,0,0,1-.48.69.35.35,0,0,1-.22.07.58.58,0,0,1-.26.07.43.43,0,0,1-.26-.07.28.28,0,0,1-.18-.07q-.22-.2-1.05-.82l-1.8-1.35-1.8-1.35q-.84-.63-1.05-.76a1,1,0,0,1-.35-.07,1,1,0,0,1-.26,0l-.22,0a7.65,7.65,0,0,0-4,1.12,12.92,12.92,0,0,0-3.47,3.1,25.09,25.09,0,0,0-2.86,4.55A37.57,37.57,0,0,0,283.8,307a39.66,39.66,0,0,0-1.36,5.87,38.37,38.37,0,0,0-.46,5.83,25.09,25.09,0,0,0,.79,6.59,14.85,14.85,0,0,0,2.2,4.84,9.11,9.11,0,0,0,7.6,3.92,13.65,13.65,0,0,0,7-2.24,10.65,10.65,0,0,0,3-3.07,8.32,8.32,0,0,0,1.23-4.65,5.48,5.48,0,0,0-.22-1.75,1.9,1.9,0,0,0-.62-.92,1.75,1.75,0,0,0-1-.33q-.57,0-1.19,0a3,3,0,0,0-1.67.46,12.61,12.61,0,0,0-1.38,1.05,14.4,14.4,0,0,1-1.36,1.05,3.18,3.18,0,0,1-3.41-.07q-.66-.53-.66-2.44a4.73,4.73,0,0,1,.9-3,6,6,0,0,1,2.15-1.75,9.2,9.2,0,0,1,2.62-.79,16.32,16.32,0,0,1,2.24-.2,11.45,11.45,0,0,1,2.95.36,5.29,5.29,0,0,1,2.35,1.32,6.15,6.15,0,0,1,1.52,2.64,14.73,14.73,0,0,1,.53,4.32,15.73,15.73,0,0,1-1.49,7.09,15.19,15.19,0,0,1-3.76,4.91,16.08,16.08,0,0,1-4.88,2.87,14.2,14.2,0,0,1-4.86,1,10.84,10.84,0,0,1-5.82-1.65,14.3,14.3,0,0,1-4.55-4.65,24.82,24.82,0,0,1-2.94-7.12A35.65,35.65,0,0,1,278.2,317.6Z" transform="translate(-103.25 -86)"/><path class="cls-3" d="M316.67,288.73a1.92,1.92,0,0,1-.64-.16,8.58,8.58,0,0,1-.86-.4l-.83-.46a2.84,2.84,0,0,1-.53-.36.83.83,0,0,1,0-.26,1.09,1.09,0,0,1,0-.33,2.6,2.6,0,0,1,.48-1.58,4.52,4.52,0,0,1,1.12-1.09,6.11,6.11,0,0,1,1.25-.66,6.31,6.31,0,0,1,1-.3h1q1.05.13,2.68.4l3.45.56,3.69.59q1.87.3,3.38.59t2.55.46q1,.17,1.21.17.35.07.9.23a4.59,4.59,0,0,1,1.12.53,5.88,5.88,0,0,1,1.05.86,2.92,2.92,0,0,1,.7,1.22,15.46,15.46,0,0,1-.62,1.61,2.92,2.92,0,0,1-.57.86.92.92,0,0,1-.64.3h-.81a35.24,35.24,0,0,1-3.71-.2l-3.71-.4-3.71-.4a35.66,35.66,0,0,0-3.76-.2q0,1.19-.2,3.56t-.31,5a44.62,44.62,0,0,0,.09,5.24,13.3,13.3,0,0,0,1,4.38,5.08,5.08,0,0,1,3.21-1.45q1.67-.07,3.38-.07h1.89a6.39,6.39,0,0,1,2.22.4,4.17,4.17,0,0,1,1.82,1.32,5.6,5.6,0,0,1,.39,4.75q-.35.66-1.62.66a1.78,1.78,0,0,1-.55-.2q-.42-.2-.88-.46t-.86-.46a1.59,1.59,0,0,0-.53-.2l-.33,0a6.18,6.18,0,0,0-.68,0c-.26,0-.52,0-.77,0l-.59,0a9.52,9.52,0,0,0-2,.2,3.67,3.67,0,0,0-1.65.79,4,4,0,0,0-1.12,1.71,8.45,8.45,0,0,0-.42,2.9q0,.59.09,2t.24,3.2q.15,1.75.42,3.59a25.69,25.69,0,0,0,.7,3.39,12.86,12.86,0,0,0,1,2.57q.55,1,1.34,1l.44-.07.44-.07q1.49-1.52,3-3.3a44.26,44.26,0,0,1,3.14-3.33,20.69,20.69,0,0,1,3.38-2.64,6.83,6.83,0,0,1,3.65-1.09v3.23a4.62,4.62,0,0,1-.86,1.45q-.86,1.19-2.24,2.77t-3.1,3.36q-1.71,1.78-3.43,3.26a27.68,27.68,0,0,1-3.27,2.47,5.21,5.21,0,0,1-2.61,1q-1.5,0-2.66-2a23.14,23.14,0,0,1-2.09-5.34,60.88,60.88,0,0,1-1.54-7.68q-.62-4.35-1.08-9t-.75-9.2q-.29-4.58-.46-8.47t-.24-6.76Q316.71,289.85,316.67,288.73Z" transform="translate(-103.25 -86)"/><path class="cls-3" d="M347.41,294.46q0-.53,0-1.75t0-2.57q0-1.35,0-2.57t0-1.68a3.64,3.64,0,0,1,1.52-2,6.73,6.73,0,0,1,2.24-.86,9.72,9.72,0,0,1,2.37-.17q1.16.07,1.91.07,1,0,2.26.13a15.5,15.5,0,0,1,2.59.49,12.36,12.36,0,0,1,2.57,1.05,8.58,8.58,0,0,1,2.26,1.78,8.28,8.28,0,0,1,1.58,2.64,10.22,10.22,0,0,1,.59,3.66,12.24,12.24,0,0,1-.79,4.52,19.81,19.81,0,0,1-2,3.76,27.19,27.19,0,0,1-2.55,3.26q-1.38,1.52-2.55,3a18.2,18.2,0,0,0-2,3,7,7,0,0,0-.79,3.3,1.4,1.4,0,0,0,.07.36,1.5,1.5,0,0,1,.07.3,66.56,66.56,0,0,1,10.09,5.6q4.9,3.3,9.65,7.12a1.65,1.65,0,0,1,.29.49,6.55,6.55,0,0,1,.29.86c.09.33.18.63.26.89a2.18,2.18,0,0,1,.13.66,1.49,1.49,0,0,1-.22.89,1.58,1.58,0,0,1-.53.46,1.29,1.29,0,0,1-.62.17h-.53A8.52,8.52,0,0,1,371,329.7q-2.35-1.55-4.72-3.46a57.93,57.93,0,0,0-4.81-3.49,9.2,9.2,0,0,0-5.08-1.58H355l1.25,4.35q.55,1.91.92,3.69t.57,3.59a36.29,36.29,0,0,1,.2,3.92v1.09q0,.63,0,1.29a3.71,3.71,0,0,1-.26,1.19,1.27,1.27,0,0,1-.7.72,13.59,13.59,0,0,1-3.23-4.91,49.12,49.12,0,0,1-2.48-7.61q-1.05-4.28-1.78-9.1t-1.19-9.46q-.46-4.65-.66-8.7T347.41,294.46Zm3.78,4.15q0,.86-.07,2.21t0,2.77a17.42,17.42,0,0,0,.29,2.7,6.4,6.4,0,0,0,.81,2.21.29.29,0,0,0,.18.07s.1.07.22.07a3.72,3.72,0,0,0,1.91-.73,15.84,15.84,0,0,0,2.35-1.91,26,26,0,0,0,2.44-2.74,29.3,29.3,0,0,0,2.18-3.2,19.29,19.29,0,0,0,1.56-3.33,9.29,9.29,0,0,0,.59-3.07,3.91,3.91,0,0,0-.66-2.27,5.59,5.59,0,0,0-1.58-1.55,6.75,6.75,0,0,0-1.91-.86,6.57,6.57,0,0,0-1.6-.26l-1.76,0a7.68,7.68,0,0,0-2,.2,4.73,4.73,0,0,0-1.78.82,3.11,3.11,0,0,0-1.1,1.78V295q0,1.15,0,2.14T351.19,298.61Z" transform="translate(-103.25 -86)"/><path class="cls-3" d="M390.53,338.17a4.84,4.84,0,0,1,1.12-2.6,13.08,13.08,0,0,1,2.07-1.88q1.16-.86,2.44-1.62a21,21,0,0,0,2.35-1.62,7.6,7.6,0,0,0,1.78-2,5.28,5.28,0,0,0,.7-2.8,7.49,7.49,0,0,0-.72-3.49,7.58,7.58,0,0,0-1.93-2.37,11.41,11.41,0,0,0-2.75-1.65l-3.14-1.35q-1.6-.69-3.14-1.52a11,11,0,0,1-2.75-2.08,9.43,9.43,0,0,1-1.93-3,11.75,11.75,0,0,1-.72-4.42,14,14,0,0,1,.59-4.12,18.46,18.46,0,0,1,3.87-6.89,15.55,15.55,0,0,1,2.72-2.44,13.84,13.84,0,0,1,2.88-1.55,7.51,7.51,0,0,1,2.68-.56h.48a9.11,9.11,0,0,1,1.05.66l1.28.89q.61.43,1.05.79c.29.24.44.38.44.43v1.52a21,21,0,0,0-2.15.49,24.58,24.58,0,0,0-2.77,1,22.14,22.14,0,0,0-2.95,1.48,13.62,13.62,0,0,0-2.68,2.08,9.94,9.94,0,0,0-1.93,2.74,8,8,0,0,0-.75,3.53,6.84,6.84,0,0,0,1.32,4.45,10.67,10.67,0,0,0,3.3,2.67,30.8,30.8,0,0,0,4.33,1.88,25,25,0,0,1,4.33,2,10.37,10.37,0,0,1,3.3,3,8.63,8.63,0,0,1,1.32,5,10.53,10.53,0,0,1-.68,3.59,20,20,0,0,1-1.8,3.69,28.1,28.1,0,0,1-2.53,3.46,23.63,23.63,0,0,1-2.88,2.87,17.73,17.73,0,0,1-2.88,2,5.4,5.4,0,0,1-2.5.76,2.37,2.37,0,0,1-.75-.13,1.65,1.65,0,0,1-.68-.43,2,2,0,0,1-.44-.89A3.21,3.21,0,0,1,390.53,338.17Z" transform="translate(-103.25 -86)"/></g></svg>